<svg width="56" height="56" viewBox="0 0 56 56" fill="none" xmlns="http://www.w3.org/2000/svg">
<rect width="56" height="56" fill="#E5E5E5"/>
<g clip-path="url(#clip0_0_1)">
<rect width="1440" height="1024" transform="translate(-14 -893)" fill="#1A5B35"/>
<g clip-path="url(#clip1_0_1)">
<path d="M0.470058 125.164C0.801353 125.471 0.995137 125.527 1.18892 125.583C3.10186 125.508 4.78967 126.209 6.62137 125.69C9.78464 124.927 13.0042 123.971 16.1112 123.403C18.1367 122.94 20.2434 122.922 22.4313 123.347C24.4255 123.716 26.4759 123.891 28.6076 124.51C31.3769 125.105 33.9211 126.474 36.1589 128.174C38.0655 129.569 38.778 131.457 38.1589 133.588C37.6523 135.332 36.8145 136.77 35.0078 137.926C33.2573 138.889 31.4006 138.77 29.6252 139.095C26.9621 139.582 24.3865 139.044 21.7547 138.7C19.5668 138.275 17.3226 138.044 15.3598 136.843C12.8156 135.474 10.2714 134.105 8.14611 132.016C6.48964 130.485 4.5831 129.09 2.45143 128.471C1.87007 128.302 1.28871 128.134 0.651068 128.159C-1.20558 128.04 -3.31231 128.058 -5.22524 128.133C-7.33195 128.152 -8.69486 129.227 -10.5266 129.745C-11.2205 129.964 -12.027 130.57 -12.7209 130.789C-14.9152 131.833 -17.3034 132.82 -19.554 134.058C-20.9981 134.689 -22.3047 135.571 -23.5551 136.258C-25.3055 137.221 -27.1935 137.933 -29.0003 139.089C-31.5572 140.658 -33.9204 142.283 -36.0086 144.409C-37.234 145.734 -38.9845 146.696 -40.3474 147.772C-41.5165 148.903 -42.9606 149.534 -44.5422 149.915C-44.9861 149.997 -45.4299 150.078 -45.8175 149.965C-46.8677 149.24 -48.0055 149.54 -49.2245 149.396C-49.4183 149.34 -49.9996 149.171 -49.9996 149.171C-50.1371 148.921 -49.9683 148.34 -49.7182 148.202C-48.1053 146.989 -46.4923 145.777 -44.6855 144.62C-42.1848 143.245 -39.6842 141.87 -37.1835 140.495C-35.9331 139.808 -34.7391 139.314 -33.6262 138.376C-30.7066 136.282 -27.787 134.188 -25.005 131.844C-23.1419 130.494 -21.4727 129.088 -19.6096 127.738C-17.4402 126.056 -16.7649 123.731 -17.0584 121.124C-17.3271 119.155 -17.652 117.379 -17.9769 115.604C-18.1643 114.079 -17.714 112.528 -17.2638 110.978C-16.1132 107.74 -13.9688 105.421 -11.9618 102.852C-11.2929 101.995 -10.2363 101.252 -9.09854 100.952C-6.71041 99.9641 -4.99766 101.302 -4.01017 103.69C-2.80394 106.772 -3.39808 109.542 -4.24229 112.448C-5.03022 115.161 -7.0621 117.093 -8.76269 119.331C-9.7943 120.712 -10.9634 121.844 -12.3263 122.919C-12.6327 123.25 -12.939 123.581 -13.0516 123.969C-13.2204 124.55 -13.583 125.075 -13.7519 125.657C-13.8082 125.85 -13.7832 126.488 -13.7832 126.488C-13.3957 126.601 -13.0081 126.713 -12.5642 126.632C-11.5639 126.082 -10.7575 125.476 -9.5634 124.982C-6.67514 123.719 -3.78688 122.457 -0.761117 121.444C0.876799 120.869 2.571 120.101 4.01513 119.469C4.26519 119.332 4.51526 119.194 4.76533 119.057C6.29707 117.4 7.8851 115.55 8.36668 113.168C8.56686 111.756 8.07311 110.562 7.57936 109.368C6.53559 107.173 5.29803 104.923 4.50433 102.591C3.84813 100.509 3.49828 98.0959 3.28593 95.9329C3.15481 94.2138 3.27377 92.3571 4.16787 90.7256C5.11825 88.9003 5.87484 87.0187 7.35031 85.556C8.5757 84.2308 10.52 83.3246 12.2704 82.362C13.0206 81.9495 14.0459 82.0371 14.8773 82.0685C17.3153 82.3563 18.8343 83.6379 20.1281 85.6948C22.0283 88.5581 21.5716 91.5774 21.5026 94.7094C21.3523 97.3975 20.4269 99.8604 19.3076 102.267C18.3572 104.092 17.6007 105.974 16.6503 107.799C16.0625 109.1 15.0872 110.287 13.7806 111.169C12.5302 111.856 11.9425 113.156 11.2172 114.206C10.9109 114.538 11.1296 115.232 10.9045 116.007C11.5984 115.788 12.0985 115.513 12.5424 115.432C14.5429 114.332 16.7373 113.288 18.6003 111.938C21.2698 109.981 23.9394 108.025 25.9463 105.456C27.2843 103.743 28.2346 101.918 29.4351 99.955C30.1604 98.9049 29.8604 97.7671 29.8105 96.4918C29.4044 94.2725 28.8607 91.8032 28.7047 89.4464C28.6298 87.5335 28.8051 85.483 29.5617 83.6014C30.2057 82.1074 30.4621 80.5008 31.1062 79.0068C31.6376 77.9004 32.2254 76.6001 32.7569 75.4937C33.7635 73.4746 35.1015 71.7618 36.6332 70.1054C37.5523 69.1115 38.3901 67.6737 39.3092 66.6799C41.1472 64.6921 43.5917 63.5108 46.2235 63.8549C47.2487 63.9425 48.4114 64.2802 49.2678 64.9492C51.0368 66.0933 51.3617 67.8687 51.4928 69.5879C51.7052 71.7509 51.5299 73.8013 51.3547 75.8518C51.3797 76.4894 51.2108 77.0708 50.8482 77.5959C50.0353 79.6712 49.4162 81.8029 48.4658 83.6282C47.5717 85.2597 46.3463 86.5849 45.5085 88.0227C43.1639 91.7545 39.7691 94.7611 36.2368 97.5176C35.9305 97.8489 35.2366 98.0677 34.7927 98.1489C34.0988 98.3676 33.4611 98.3926 33.236 99.1677C32.7295 100.912 32.0292 102.6 31.5789 104.15C31.5226 104.344 31.5226 104.344 31.6039 104.788C32.6041 104.238 33.5481 103.881 34.3546 103.275C38.1619 101.019 41.913 98.956 45.7765 96.5058C47.8334 95.212 49.7527 93.6681 51.5345 91.8741C52.7599 90.5489 54.3729 89.3363 55.7358 88.2612C56.2922 87.7924 56.5985 87.4611 56.9612 86.936C57.2675 86.6047 57.1863 86.1608 57.2988 85.7733C57.4677 85.1919 57.6365 84.6105 57.9429 84.2793C58.1117 83.6979 58.168 83.5041 57.5866 83.3353C57.0053 83.1664 56.4239 82.9976 56.4553 82.1661C56.6804 81.391 57.2368 80.9222 57.8744 80.8972C58.3183 80.816 58.8997 80.9849 59.3435 80.9036C60.3687 80.9913 60.9814 80.3287 60.6252 79.3847C60.2689 78.4407 60.1065 77.553 59.5002 76.7465C58.2063 74.6897 57.8565 72.2766 57.5629 69.6697C57.0007 65.0937 57.8513 60.7178 59.1458 56.2607C59.99 53.3538 61.6094 50.6722 64.0851 48.6594C64.8916 48.0531 66.0856 47.5594 67.0859 47.0094C68.7801 46.2406 70.3304 46.6908 71.8244 47.3349C73.1809 47.7288 74.1185 48.8417 74.8061 50.092C76.3999 53.2866 76.2745 56.6124 75.7053 60.0193C75.1362 63.4263 74.1794 66.7206 72.6412 69.8462C71.6909 71.6715 70.4092 73.1905 69.1275 74.7094C68.0959 76.0909 66.8705 77.4161 65.8389 78.7975C65.4763 79.3226 65.3074 79.904 65.5824 80.4041C65.8012 81.098 65.6323 81.6794 64.9384 81.8981C63.8006 82.1981 63.1316 83.0545 62.6565 83.9671C62.5439 84.3547 62.2375 84.686 62.0687 85.2674C62.0124 85.4611 61.9561 85.6549 62.0936 85.905C62.2874 85.9613 62.4812 86.0176 62.7313 85.8801C63.1751 85.7988 63.4815 85.4675 63.7878 85.1362C66.2636 83.1235 68.7956 80.917 71.2713 78.9043C72.9406 77.4979 74.4161 76.0352 75.8915 74.5725C76.1416 74.435 76.0041 74.185 76.0604 73.9912C76.4543 72.6347 76.8483 71.2782 77.9611 70.3405C78.5988 70.3156 78.7113 69.928 78.8239 69.5405C79.1366 67.7401 79.3119 65.6896 79.4308 63.833C79.7186 61.395 80.394 59.0695 81.3194 56.6066C83.0264 52.8997 85.921 50.1681 89.2845 47.9929C90.341 47.2491 91.5914 46.5616 92.8417 45.874C94.5359 45.1053 96.9989 46.0307 97.4613 48.0562C97.7612 49.194 97.8111 50.4693 97.861 51.7446C97.8233 54.0451 97.1479 56.3705 96.1413 58.3896C95.022 60.7963 93.3777 62.8403 91.7334 64.8844C89.8391 67.0659 87.6447 68.1097 85.144 69.4848C84.6439 69.7598 83.8937 70.1723 83.6686 70.9475C83.6123 71.1413 83.1122 71.4163 82.8621 71.5538C82.2494 72.2164 81.6367 72.879 80.9677 73.7353C81.4679 73.4603 81.968 73.1853 82.4681 72.9103C85.3314 71.0101 88.1948 69.11 91.1143 67.016C91.8646 66.6035 92.146 65.6346 92.9524 65.0283C94.1778 63.7031 95.5407 62.628 96.7099 61.4966C98.2665 60.4778 99.2419 59.2901 100.136 57.6586C101.336 55.6958 102.593 53.5391 104.844 52.3016C106.15 51.4203 107.401 50.7327 108.651 50.0452C109.207 49.5764 109.708 49.3014 110.402 49.0826C111.458 48.3388 112.652 47.8451 113.903 47.1575C114.653 46.745 114.871 47.4389 115.146 47.9391C115.584 49.3269 115.44 50.5459 115.046 51.9025C114.177 54.1716 112.976 56.1344 111.113 57.4846C110.307 58.0909 109.638 58.9473 109.025 59.6098C107.219 60.7662 105.581 61.3412 103.886 62.1099C102.499 62.5474 101.192 63.4287 99.8853 64.31C99.1351 64.7225 98.3286 65.3289 97.5221 65.9352C97.2721 66.0727 96.9657 66.404 96.8531 66.7915C97.0469 66.8478 97.297 66.7103 97.4908 66.7666C100.517 65.7542 103.43 65.1293 106.374 63.673C107.124 63.2605 108.15 63.3481 109.175 63.4357C111.225 63.6109 113.107 64.3675 114.932 65.3179C115.845 65.7931 115.87 66.4307 115.063 67.0371C113.507 68.0559 111.894 69.2685 110.337 70.2873C108.587 71.2499 106.811 71.5748 104.898 71.6496C103.623 71.6995 102.348 71.7494 101.129 71.6055C98.6906 71.3177 96.2776 71.6676 94.002 72.2675C93.7519 72.405 93.5581 72.3487 93.3081 72.4862L93.2518 72.68L93.4456 72.7363C94.9959 73.1865 96.6025 73.443 98.1528 73.8932C99.5093 74.2872 99.5905 74.7311 98.6715 75.7249C98.6152 75.9187 98.4214 75.8624 98.3088 76.25C99.1403 76.2814 99.9717 76.3127 100.609 76.2877C102.966 76.1317 105.235 77.0008 107.254 78.0075C107.917 78.6202 108.83 79.0954 109.549 79.5143C111.318 80.6585 112.03 82.5465 112.105 84.4594C112.098 85.9285 111.123 87.1161 109.954 88.2475C108.535 89.5164 106.841 90.2852 105.009 90.8039C103.427 91.1851 101.571 91.0661 100.02 90.6159C98.0825 90.0531 95.9508 89.434 94.0692 88.6774C92.9628 88.1459 91.9126 87.4206 90.8062 86.8892C87.6806 85.351 84.305 83.9504 81.1232 82.6061C80.5418 82.4372 79.9042 82.4622 79.5166 82.3496C75.3594 82.1929 71.721 83.868 68.1637 85.9868C66.6633 86.8119 65.3567 87.6932 63.9938 88.7683C61.6869 90.1997 59.3237 91.8248 56.823 93.1999C55.3226 94.0249 53.8222 94.85 52.4593 95.9251C53.0407 96.0939 53.4845 96.0127 54.0659 96.1815C57.0853 96.6382 60.2172 96.7072 63.3242 96.1386C63.9619 96.1137 64.6558 95.895 65.3497 95.6762C67.7378 94.6887 70.2884 94.5889 72.8953 94.2954C75.3083 93.9455 77.8026 94.0395 80.2406 94.3273C80.8783 94.3024 81.6534 94.5275 82.4286 94.7526C83.7851 95.1466 85.1979 95.3468 86.5544 95.7407C89.0173 96.6662 91.3428 97.3415 93.3868 98.9858C95.2934 100.38 97.0874 102.162 98.3812 104.219C99.125 105.275 99.5625 106.663 99.3623 108.076C99.031 107.77 99.1685 108.02 99.1122 108.213C99.056 108.407 98.7496 108.739 98.6933 108.932C98.6371 109.126 98.4433 109.07 98.4433 109.07C95.7424 111.858 92.3291 112.758 88.7533 112.77C85.9526 113.007 83.0145 112.994 80.1889 112.594C77.3633 112.194 74.3439 111.737 71.6622 110.118C70.2245 109.28 68.843 108.248 67.6554 107.273C66.2739 106.241 65.0862 105.266 63.7048 104.234C63.1797 103.872 62.5983 103.703 62.267 103.396C60.498 102.252 58.6727 101.302 56.7099 100.101C55.4659 99.3199 54.0531 99.1197 52.7216 99.3634C50.7523 99.632 48.5893 99.8443 46.7576 100.363C43.3443 101.263 39.8184 102.55 36.7613 104.394C34.0105 105.907 31.2035 107.613 28.5903 109.376C27.7838 109.982 27.0336 110.395 26.4209 111.057C26.1145 111.389 25.7519 111.914 25.8331 112.357C25.6643 112.939 25.9956 113.245 26.6332 113.22C29.7652 113.289 32.9284 112.527 35.8416 111.902C37.1732 111.658 38.3673 111.165 39.6426 111.115C40.7241 111.009 41.9993 110.959 43.2183 111.103C45.075 111.222 46.8754 111.534 48.6757 111.847C51.7514 112.11 54.9083 112.817 57.8963 114.105C60.303 115.224 62.9035 116.399 65.0038 117.85C67.9605 119.969 70.1107 122.695 70.7605 126.246C71.1916 129.103 70.7912 131.929 68.178 133.691C66.0649 135.179 63.7893 135.779 61.1575 135.435C58.3319 135.034 55.5377 133.802 52.8809 132.821C49.6991 131.476 46.5736 129.938 43.6981 128.263C41.5415 127.006 39.4974 125.362 37.2033 123.855C35.9594 123.073 34.7154 122.292 33.4715 121.51C32.9464 121.148 32.365 120.979 32.09 120.479C30.321 119.334 28.7707 118.884 27.583 117.909C27.2517 117.602 26.6141 117.627 26.0327 117.459C25.4513 117.29 24.6199 117.258 24.0385 117.09C23.4572 116.921 22.8758 116.752 22.1256 117.164C21.6255 117.439 20.6565 117.158 19.9626 117.377C16.218 117.97 12.9421 119.12 9.69125 120.908C7.44064 122.145 4.85872 123.077 2.66439 124.12C1.77668 124.283 1.22026 124.752 0.470058 125.164ZM79.7527 98.1781L79.6964 98.3719C79.8902 98.4282 79.8339 98.622 80.0839 98.4845C81.8843 98.7972 83.7096 99.7476 85.4601 98.7851C85.4601 98.7851 85.7102 98.6475 85.904 98.7038C86.0978 98.7601 86.2915 98.8164 86.4853 98.8727C86.429 99.0665 86.3728 99.2602 86.3165 99.454C86.0664 99.5915 85.8163 99.729 85.51 100.06C86.5039 100.979 87.8668 99.9043 89.0545 100.88C88.3605 101.098 87.7229 101.123 87.279 101.205L87.2228 101.398C87.9416 101.817 88.9106 102.099 89.6294 102.518C89.8232 102.574 89.9607 102.824 90.0982 103.074C89.8482 103.211 89.5981 103.349 89.4043 103.293C89.0167 103.18 88.6292 103.068 88.2416 102.955C88.2416 102.955 88.1853 103.149 87.9915 103.092C89.3416 104.956 90.8043 106.431 91.6543 108.569C89.3103 105.787 87.5227 102.536 83.7032 101.217C84.172 101.773 84.6408 102.33 85.0534 103.08C85.5222 103.636 85.991 104.193 85.7658 104.968C84.3594 103.298 83.0093 101.435 81.1028 100.041C81.0465 100.235 81.0465 100.235 80.9902 100.429C82.3966 102.098 83.803 103.767 85.0156 105.38C85.3469 105.687 85.4282 106.13 85.5094 106.574L85.2593 106.712C84.7905 106.155 84.5155 105.655 84.0467 105.099C82.7778 103.68 81.5652 102.067 80.2963 100.647C79.69 99.841 78.8336 99.172 77.502 99.4157C80.0398 102.254 82.6902 104.705 83.9214 108.425C82.215 105.618 80.4524 103.004 77.8832 100.997C77.8832 100.997 77.8269 101.191 77.6332 101.135C77.9082 101.635 78.1832 102.135 78.4582 102.635L78.2081 102.773C77.7393 102.216 77.4643 101.716 76.9955 101.16C76.5267 100.603 76.0016 100.241 75.2828 99.8218C74.2889 98.9028 74.2889 98.9028 73.3449 99.259C75.8891 100.628 77.6268 102.604 78.8643 104.855C78.4768 104.742 78.283 104.686 78.1455 104.436C76.464 102.266 74.2262 100.566 71.9321 99.0588C71.407 98.6962 70.8819 98.3336 70.0754 98.9399C71.1256 99.6651 72.1758 100.39 73.2259 101.116C74.2198 102.035 75.0199 102.897 76.0138 103.817C77.4765 105.292 77.889 106.042 77.8577 106.874C75.2949 103.398 68.7189 98.5459 66.9998 98.677C69.6252 100.49 72.2506 102.303 73.957 105.11C72.3817 104.022 70.919 102.547 69.3438 101.459C67.7685 100.371 66.3059 98.8958 64.1991 98.9143C65.5806 99.9459 67.2121 100.84 68.5936 101.872C69.45 102.541 70.1126 103.153 70.9689 103.822C71.1627 103.879 71.0502 104.266 71.0502 104.266C69.6687 103.235 68.0934 102.147 66.6557 101.309C65.218 100.471 63.699 99.1893 61.7861 99.2642C62.9737 100.24 64.2177 101.021 65.2116 101.94C66.2055 102.859 67.812 103.116 68.3307 104.947C66.2304 103.497 64.2676 102.296 62.3048 101.096C60.3419 99.8954 58.0728 99.0263 56.2161 98.9073C57.0725 99.5763 58.1227 100.302 59.3666 101.083C61.5232 102.34 63.6798 103.597 65.8364 104.853C67.7993 106.054 69.4557 107.585 71.3623 108.98C72.55 109.955 74.044 110.599 75.5943 111.049C78.3073 111.837 81.0517 111.794 83.9335 112C86.6216 112.151 89.1159 112.245 91.6415 111.507C93.4732 110.989 95.1112 110.414 96.5303 109.145C97.3931 108.345 97.2556 108.094 96.593 107.482C95.7366 106.813 94.8803 106.144 94.0239 105.475C93.8864 105.225 93.5551 104.918 93.4176 104.668C93.8051 104.781 94.3053 104.506 94.4428 104.756C95.1617 105.175 95.8805 105.594 96.5994 106.013C96.7932 106.069 96.987 106.125 97.1245 106.375L97.3745 106.238C96.962 105.488 96.5495 104.737 96.3871 103.85C95.8933 102.656 94.643 103.343 93.9804 102.73C94.343 102.205 94.6494 101.874 94.7619 101.487C93.9305 101.455 93.2366 101.674 92.4051 101.643C92.5177 101.255 92.824 100.924 92.9366 100.536C92.299 100.561 91.5238 100.336 90.8862 100.361C90.9987 99.9733 91.2488 99.8358 91.3614 99.4483C90.5299 99.4169 89.6985 99.3856 89.1171 99.2167L89.1734 99.023C89.6735 98.7479 90.1174 98.6667 90.8113 98.448C90.8676 98.2542 90.8676 98.2542 90.7301 98.0041C89.4548 98.054 87.9857 98.0476 86.7105 98.0975C86.7105 98.0975 86.7667 97.9037 86.5729 97.8474C87.2669 97.6287 87.767 97.3537 88.6547 97.1912C86.3293 96.5159 84.1976 95.8968 82.2034 95.5278C80.4031 95.215 78.659 94.7085 76.8023 94.5896C74.9457 94.4706 73.2265 94.6017 71.5074 94.7328C69.982 94.9202 68.4004 95.3014 67.0126 95.7389C66.8188 95.6826 66.7062 96.0702 66.6499 96.264C66.8437 96.3203 67.0375 96.3765 67.2313 96.4328C67.6752 96.3516 67.9252 96.2141 68.4254 95.9391C69.1193 95.7203 69.6194 95.4453 70.0882 96.0017C70.2257 96.2518 70.6696 96.1706 70.9196 96.0331C71.3635 95.9518 71.8636 95.6768 72.3075 95.5956C72.5576 95.4581 72.9451 95.5707 73.1389 95.6269C73.4952 96.5709 74.0516 96.1021 74.7455 95.8834C75.3832 95.8585 76.2709 95.696 76.4084 95.9461C76.8209 96.6963 77.321 96.4213 77.7649 96.34C78.2087 96.2588 78.6526 96.1776 79.1527 95.9026C79.5966 95.8213 80.0404 95.7401 80.0654 96.3778C80.0903 97.0154 79.509 96.8466 79.2589 96.9841C78.565 97.2028 77.8711 97.4215 76.9833 97.584C77.3709 97.6966 77.5084 97.9466 77.5647 97.7528C78.2586 97.5341 78.9526 97.3154 79.5902 97.2904C80.728 96.9905 81.8095 96.8843 82.9473 96.5843C83.1973 96.4468 83.4723 96.947 83.8599 97.0595C83.6098 97.197 83.3598 97.3345 83.1097 97.472C81.7219 97.9095 80.8342 98.072 79.7527 98.1781ZM49.087 125.625C49.1433 125.431 49.3371 125.488 49.3934 125.294C50.056 125.906 50.7186 126.519 51.1311 127.269C52.1499 128.826 53.1125 130.577 54.3251 132.19C54.6564 132.496 54.9877 132.802 55.319 133.109C55.319 133.109 55.3752 132.915 55.569 132.971C55.019 131.971 54.469 130.971 53.9189 129.97L54.169 129.833C55.5505 130.864 55.569 132.971 57.2568 133.671C57.0381 132.977 56.5693 132.421 56.3506 131.727C56.1318 131.033 55.8568 130.533 55.6381 129.839C55.6381 129.839 55.6381 129.839 55.8319 129.895C56.8507 131.452 57.9258 132.815 58.9446 134.372C59.1384 134.428 59.1947 134.234 59.3885 134.29C59.1135 133.79 59.0885 133.153 58.8135 132.653C58.5385 132.152 58.2635 131.652 57.9885 131.152C58.2386 131.015 58.2386 131.015 58.4886 130.877C58.9011 131.627 59.5074 132.434 59.92 133.184C60.195 133.684 60.4137 134.378 61.4389 134.466C60.7514 133.215 60.4514 132.078 59.7639 130.827C60.9516 131.803 61.6954 132.859 62.1891 134.053C62.3266 134.303 62.5204 134.36 62.6579 134.61C62.7142 134.416 62.8268 134.028 62.633 133.972C62.2768 133.028 61.9205 132.084 61.4268 130.89C62.8082 131.922 63.2457 133.309 63.9895 134.366C64.1897 132.953 63.4459 131.897 62.7021 130.84C64.2524 131.29 64.1897 132.953 65.1836 133.872C65.5775 132.516 65.0275 131.515 64.4775 130.515L64.7276 130.378C65.3339 131.184 65.8839 132.184 66.4902 132.991C66.5465 132.797 66.8528 132.466 66.8528 132.466C66.1403 130.578 65.6216 128.746 64.7966 127.246C63.7528 125.051 61.6525 123.601 59.9398 122.263C59.9398 122.263 59.8835 122.457 59.6897 122.4C59.6334 122.594 59.7709 122.844 59.7146 123.038C58.9958 122.619 58.4144 122.45 57.6955 122.031C58.5206 123.532 59.4019 124.838 60.0331 126.282L59.7831 126.42C58.3517 124.113 56.6703 121.944 54.3762 120.437C53.9886 120.324 53.7948 120.268 53.4635 119.962C53.4073 120.156 53.4073 120.156 53.351 120.349C53.6823 120.656 54.0136 120.962 54.0948 121.406C54.4261 121.712 54.7574 122.019 54.8949 122.269C54.8386 122.462 54.6448 122.406 54.5885 122.6C52.3507 120.899 50.7256 118.536 47.6499 118.273C48.6438 119.192 49.694 119.918 50.6878 120.837C50.6878 120.837 50.6316 121.03 50.4378 120.974C48.8625 119.886 47.3436 118.605 45.7683 117.517C45.712 117.711 45.712 117.711 45.462 117.848C47.1747 119.186 49.3876 120.249 50.4314 122.443C49.2437 121.468 48.1123 120.299 46.6746 119.461C45.4306 118.679 44.0492 117.648 42.33 117.779C44.3741 119.423 46.5307 120.68 48.0183 122.793C47.8245 122.737 47.6307 122.681 47.4369 122.624C46.3056 121.455 45.1179 120.48 43.8739 119.698C42.5737 119.111 41.5798 118.191 40.3359 117.41C39.4232 116.935 38.398 116.847 37.3165 116.953C40.5233 118.935 43.7863 120.723 46.3241 123.562C44.6926 122.668 43.3674 121.442 41.9297 120.605C40.4919 119.767 38.8041 119.066 37.1726 118.172L37.1163 118.366C37.9727 119.035 38.579 119.842 39.4354 120.511C39.3791 120.704 39.1853 120.648 39.129 120.842C37.4163 119.504 36.0099 117.835 33.4343 117.297C34.7595 118.522 36.1973 119.36 36.7722 120.998C36.2472 120.635 35.5846 120.023 35.0595 119.66C33.5968 118.184 32.1341 116.709 29.6648 117.253C29.471 117.196 29.471 117.196 29.2772 117.14C28.502 116.915 27.977 116.552 27.2018 116.327C26.6204 116.158 25.9828 116.183 25.3452 116.208L25.2889 116.402C25.4827 116.458 25.6765 116.515 25.8702 116.571C28.4458 117.109 30.4086 118.309 32.2026 120.091C32.8651 120.704 33.7215 121.373 34.4404 121.792C34.9655 122.154 35.3531 122.267 35.8781 122.629L35.9344 122.436C35.8532 121.992 35.5782 121.492 35.497 121.048L35.747 120.91C37.0473 121.498 36.9283 123.355 38.4223 123.999C38.3411 123.555 38.2036 123.305 38.0661 123.055C37.9286 122.805 38.0411 122.417 37.9036 122.167L38.1537 122.03C38.9787 123.53 39.9976 125.087 41.379 126.118C41.104 125.618 40.829 125.118 40.554 124.618C40.279 124.118 40.1977 123.674 39.979 122.98L40.2291 122.842C40.3666 123.092 40.7542 123.205 40.8917 123.455C41.773 124.762 42.7106 125.875 43.5919 127.181C44.0607 127.738 44.417 128.682 45.4422 128.769C44.9798 126.744 43.5171 125.268 42.5545 123.518C43.5484 124.437 44.7361 125.412 45.4799 126.469C46.2237 127.525 46.9113 128.776 47.6551 129.832C47.9864 130.138 48.3739 130.251 48.7052 130.557L48.7615 130.364C47.6052 128.557 46.4488 126.75 45.2925 124.943C46.7053 125.143 47.8117 125.675 48.7493 126.788C49.9057 128.595 51.062 130.401 52.2746 132.014C52.4121 132.264 52.7997 132.377 53.131 132.683C52.6187 129.382 50.5747 127.738 49.087 125.625ZM43.24 80.6396C44.184 80.2833 44.9342 79.8708 45.6281 79.6521C45.8782 79.5146 46.2095 79.8209 46.4032 79.8772C46.347 80.071 46.0969 80.2085 46.0406 80.4023C45.2904 80.8148 44.5965 81.0335 43.8463 81.446C43.0961 81.8586 42.2896 82.4649 42.3395 83.7402C42.5895 83.6027 43.0334 83.5214 43.2835 83.3839C43.7836 83.1089 44.2837 82.8339 44.7839 82.5589C45.0339 82.4214 45.3652 82.7277 45.7528 82.8403C45.6965 83.0341 45.584 83.4216 45.3339 83.5592C45.2776 83.7529 45.0838 83.6967 44.89 83.6404C43.8898 84.1904 42.6957 84.6842 41.6954 85.2342C41.9705 85.7343 42.3017 86.0407 42.633 86.347C42.8268 86.4033 43.0206 86.4596 43.4082 86.5721C44.0458 86.5472 44.9336 86.3847 45.5712 86.3598C45.8213 86.2223 46.0713 86.0848 46.3214 85.9473C47.1029 84.7033 47.8845 83.4594 48.4722 82.1591C49.0037 81.0527 49.5352 79.9463 49.8729 78.7835C50.1543 77.8146 50.6857 76.7081 50.6358 75.4329C50.0231 76.0954 49.4667 76.5642 48.9103 77.033C48.7165 76.9768 48.7728 76.783 48.579 76.7267C49.0542 75.814 49.4731 75.0952 49.9483 74.1825C49.5607 74.07 49.3107 74.2075 48.9231 74.0949C49.4546 72.9885 49.736 72.0195 50.3487 71.3569C50.9614 70.6943 50.8801 70.2505 50.8552 69.6128C50.7177 69.3628 50.774 69.169 50.8302 68.9752C50.6678 68.0875 50.5053 67.1998 49.7052 66.337C49.1738 67.4434 48.586 68.7437 47.7233 69.5438C47.8671 68.3248 48.2048 67.162 48.4862 66.1931C48.7114 65.418 48.3801 65.1116 47.7987 64.9428C47.2173 64.7739 46.3859 64.7426 45.7483 64.7675C45.5545 64.7112 44.9981 65.1801 44.9981 65.1801C45.1042 66.2616 45.2667 67.1493 45.5104 68.4808C45.9293 67.762 46.0981 67.1806 46.2107 66.793L46.4045 66.8493C46.3482 67.0431 46.4294 67.4869 46.3731 67.6807C46.2043 68.2621 45.8417 68.7872 45.479 69.3123C45.4227 69.5061 44.9789 69.5873 44.9226 69.7811C44.7851 69.531 44.4538 69.2246 44.5101 69.0309C44.3726 68.7808 44.4851 68.3932 44.3476 68.1432C44.3227 67.5055 44.1602 66.6178 44.1353 65.9802C44.1103 65.3425 43.529 65.1737 43.0288 65.4487C41.916 66.3863 40.6657 67.0738 39.5528 68.0114C39.2465 68.3427 39.0214 69.1179 38.8525 69.6992C38.346 71.4433 37.8958 72.9936 37.3329 74.9315C37.0579 74.4314 36.9204 74.1813 36.7829 73.9312C36.364 74.6501 35.9451 75.369 35.7763 75.9503L35.5825 75.894C35.6138 75.0626 35.8389 74.2875 35.8703 73.456C34.1447 75.0562 34.6884 77.5256 33.2378 79.6259C33.2129 78.9883 33.1317 78.5444 32.9942 78.2943C32.7441 78.4318 32.4378 78.7631 32.3815 78.9569C32.3501 79.7883 32.0687 80.7573 32.0374 81.5887C31.8686 82.1701 31.8935 82.8077 31.2559 82.8327C31.0621 82.7764 30.9495 83.164 30.8932 83.3577C30.6368 84.9643 30.6304 86.4334 30.1801 87.9837C29.7862 89.3402 31.0301 90.1218 31.1363 91.2033C31.2489 90.8157 31.3614 90.4281 31.474 90.0405C31.6678 90.0968 31.6678 90.0968 31.8616 90.1531C32.024 91.0408 32.2427 91.7347 32.599 92.6787C32.599 92.6787 32.7928 92.735 32.849 92.5412C32.8804 91.7098 32.6616 91.0159 32.693 90.1844C32.7493 89.9906 32.6118 89.7406 32.668 89.5468C33.4745 88.9405 33.3121 88.0528 33.1496 87.1651C33.2059 86.9713 33.2622 86.7775 33.3185 86.5837C33.9248 87.3902 34.4498 87.7528 34.3622 88.778C34.1371 89.5532 34.4934 90.4972 34.7121 91.1911C34.9059 91.2474 34.9059 91.2474 35.1559 91.1099C35.2685 90.7223 35.5749 90.391 35.4936 89.9471C35.1687 88.1717 34.7875 86.5901 34.6564 84.8709C34.494 83.9832 34.3315 83.0955 34.3066 82.4579L34.5566 82.3204C34.6941 82.5704 34.8316 82.8205 34.9692 83.0706C35.2691 84.2084 35.3753 85.2899 35.6752 86.4276C35.894 87.1216 35.8064 88.1468 36.6627 88.8158C36.5815 88.3719 36.6941 87.9843 36.5566 87.7343C36.0129 85.2649 35.4693 82.7956 34.7319 80.2699C34.5944 80.0199 34.7069 79.6323 34.7632 79.4385C34.957 79.4948 35.0133 79.301 35.2071 79.3573C35.7507 81.8266 36.5444 84.1585 37.088 86.6278C37.2818 86.6841 37.3381 86.4903 37.5319 86.5466C37.2134 83.3021 36.0634 80.0262 35.9387 76.838C37.0388 78.8386 36.9448 81.3329 37.7947 83.4709C37.97 81.4205 37.0637 79.4762 36.9889 77.5633C37.4014 78.3135 37.8139 79.0637 38.0326 79.7576C38.5513 81.5893 39.0137 83.6148 39.7262 85.5028C39.8637 85.7529 40.0012 86.0029 40.0825 86.4468L40.3325 86.3093C40.4515 84.4526 39.2389 82.8397 38.914 81.0642C38.6453 79.095 38.1266 77.2633 37.8017 75.4879C37.8017 75.4879 37.9955 75.5442 38.0518 75.3504C39.3706 78.0449 39.3015 81.1768 40.564 84.0651C41.1767 83.4025 41.4831 83.0712 41.0706 82.321C40.7956 81.8208 40.5768 81.1269 40.3581 80.433C39.952 78.2137 39.4896 76.1882 39.2772 74.0252C39.196 73.5814 39.3648 73 39.2836 72.5561C39.4774 72.6124 39.4774 72.6124 39.7275 72.4749C39.9462 73.1688 39.9711 73.8065 40.1899 74.5004C40.4086 75.1943 40.3773 76.0258 41.0961 76.4447C41.4274 76.751 41.6462 77.445 41.9212 77.9451C42.1399 78.639 42.3586 79.3329 42.3836 79.9706C42.3836 79.9706 42.5774 80.0269 42.6337 79.8331C43.0027 77.8389 41.7088 75.7821 42.1341 73.5941C42.4904 74.5381 42.8466 75.4821 43.0091 76.3698L43.2591 76.2323C42.9342 74.4569 42.2217 72.5689 42.3407 70.7123C43.5846 71.4938 42.9406 72.9878 43.797 73.6568C43.5284 71.6876 43.2597 69.7184 43.0474 67.5554C43.2412 67.6117 43.2975 67.4179 43.4913 67.4742C43.7663 67.9743 44.0413 68.4744 44.0662 69.1121C44.5037 70.4999 43.9159 71.8002 45.0473 72.9693L44.9911 73.1631C44.7659 73.9382 44.7909 74.5759 44.5658 75.351C44.1155 76.9013 43.609 78.6454 43.3525 80.252C43.1587 80.1957 43.2962 80.4458 43.24 80.6396ZM4.25819 127.315C4.45198 127.371 4.58949 127.621 4.58949 127.621C5.8085 127.765 6.83372 127.853 8.05272 127.997C10.4907 128.285 12.9601 127.741 15.1544 126.697C15.9046 126.285 16.5423 126.26 17.43 126.097C17.3737 126.291 17.5675 126.347 17.5112 126.541C16.3171 127.035 15.0668 127.722 13.6789 128.16C12.2911 128.597 10.9595 128.841 9.57168 129.278C10.8719 129.866 12.066 129.372 13.4538 128.935C14.5916 128.635 15.8419 127.947 16.7859 127.591C17.036 127.454 17.2298 127.51 17.4236 127.566C17.4236 127.566 17.3673 127.76 17.5611 127.816C17.0047 128.285 16.3108 128.504 15.7543 128.973L15.8918 129.223C16.1419 129.085 16.5858 129.004 16.8358 128.867C17.5298 128.648 18.28 128.235 19.0302 127.823C19.2802 127.685 19.4177 127.935 19.6678 127.798C19.6115 127.992 19.499 128.379 19.499 128.379C18.1923 129.26 16.6919 130.086 15.0291 130.023C14.3914 130.048 13.7538 130.073 12.8661 130.235C13.3349 130.792 13.4724 131.042 13.6099 131.292C14.2725 131.904 14.7413 132.461 15.3476 133.267C15.4851 133.517 15.4288 133.711 15.3725 133.905C15.1787 133.849 14.9287 133.986 14.7912 133.736C14.5974 133.68 14.4599 133.43 14.4599 133.43C13.9911 132.873 13.5472 132.955 13.1283 133.673C13.5159 133.786 14.041 134.149 14.4285 134.261C16.2539 135.212 18.0229 136.356 20.017 136.725C21.4298 136.925 22.9801 137.375 24.4492 137.382C27.1373 137.532 29.6316 137.626 32.2385 137.332C34.6515 136.982 36.377 135.382 36.8586 133.001C37.14 132.032 37.0901 130.756 36.6776 130.006C35.8526 128.506 34.4148 127.668 32.9208 127.024C32.0082 126.549 31.0955 126.073 30.1266 125.792C28.5763 125.342 26.8885 124.642 25.2819 124.385C22.2625 123.928 19.3806 123.722 16.4111 124.541C14.3294 125.197 11.9163 125.547 9.89081 126.009C7.42147 126.553 5.83983 126.934 4.25819 127.315ZM113.819 66.2555C112.438 65.2239 110.888 64.7737 109.281 64.5172C108.312 64.2358 107.231 64.342 106.287 64.6982C105.787 64.9732 105.093 65.192 104.592 65.467C103.205 65.9044 101.954 66.592 100.623 66.8357C98.6535 67.1043 97.0156 67.6793 95.4589 68.6981C94.2086 69.3856 93.0957 70.3232 91.8454 71.0108C91.3766 70.4543 91.6829 70.123 92.0456 69.598C93.4398 67.6914 95.3841 66.7851 97.1096 65.185C98.5851 63.7223 100.336 62.7597 102.005 61.3533C101.286 60.9344 101.398 60.5468 102.286 60.3844C103.174 60.2219 104.005 60.2533 104.893 60.0908C105.337 60.0096 105.587 59.8721 105.781 59.9284C105.781 59.9284 105.837 59.7346 105.643 59.6783C105.256 59.5657 104.812 59.647 104.174 59.6719C103.73 59.7531 103.343 59.6406 102.705 59.6655C102.761 59.4717 102.818 59.2779 102.818 59.2779C104.399 58.8968 106.2 59.2095 107.644 58.5782C107.644 58.5782 107.7 58.3844 107.506 58.3282C106.425 58.4343 105.15 58.4842 103.874 58.5341C103.931 58.3403 103.931 58.3403 103.793 58.0903C104.624 58.1216 105.262 58.0967 105.956 57.8779L106.012 57.6841C105.375 57.7091 104.737 57.734 104.349 57.6215C104.406 57.4277 104.406 57.4277 104.268 57.1776C106.044 56.8527 107.981 57.4155 109.676 56.6467L109.732 56.453C108.457 56.5029 107.238 56.359 105.962 56.4088C107.794 55.8902 109.845 56.0654 111.539 55.2966C111.595 55.1028 111.595 55.1028 111.457 54.8528C109.738 54.9839 108.019 55.115 106.106 55.1898C106.106 55.1898 106.163 54.9961 105.969 54.9398C108.188 54.5336 110.376 54.9589 112.295 53.415C111.158 53.715 109.882 53.7649 108.551 54.0086C110.107 52.9897 112.183 53.8026 113.327 52.0336C112.939 51.921 112.746 51.8647 112.746 51.8647C113.108 51.3396 113.415 51.0084 113.527 50.6208C113.527 50.6208 113.333 50.5645 113.39 50.3707C113.14 50.5082 112.696 50.5894 112.446 50.7269C112.502 50.5332 112.752 50.3957 112.752 50.3957C113.002 50.2581 113.39 50.3707 113.446 50.1769C113.502 49.9831 113.615 49.5956 113.671 49.4018C113.477 49.3455 113.146 49.0391 112.896 49.1766C111.646 49.8642 110.201 50.4954 108.951 51.183C105.369 52.6642 102.587 55.0082 100.88 58.7151C100.211 59.5715 99.4856 60.6217 98.8166 61.478C97.8975 62.4719 96.7847 63.4095 95.8656 64.4034C95.0029 65.2035 94.1964 65.8098 93.3336 66.6099C91.108 68.4851 88.826 70.5541 86.6003 72.4293C85.2374 73.5044 83.487 74.467 81.7928 75.2357C79.042 76.7483 76.235 78.4547 73.4842 79.9673C73.2342 80.1048 72.9841 80.2423 72.7903 80.186C72.0714 79.7671 71.7088 80.2922 71.4025 80.6235C69.4269 82.3612 67.645 84.1551 65.3944 85.3927C65.1444 85.5302 65.0318 85.9178 64.7817 86.0553C65.1693 86.1678 65.4194 86.0303 65.6132 86.0866C68.0576 84.9053 70.752 83.5866 73.1964 82.4053C74.6406 81.774 75.8346 81.2803 76.0911 79.6737C76.1474 79.4799 76.3974 79.3424 76.6475 79.2049C78.0916 78.5736 79.6733 78.1924 80.7049 76.811C80.7612 76.6172 81.2613 76.3422 81.5114 76.2047C83.4556 75.2984 85.1498 74.5297 87.0378 73.8172C89.1759 72.9672 91.1764 71.8671 93.5082 71.0734C94.4522 70.7172 95.6214 69.5858 96.809 70.5611L97.0028 70.6174C98.028 70.705 99.0533 70.7926 100.135 70.6865C101.354 70.8304 102.629 70.7805 103.848 70.9244C102.385 69.4489 100.804 69.8301 99.1658 70.4051C99.5847 69.6862 99.6973 69.2986 100.06 68.7735C100.254 68.8298 100.698 68.7486 100.948 68.6111C102.392 67.9798 103.667 67.9299 105.055 67.4925C106.386 67.2488 107.581 66.755 108.937 67.149C109.712 67.3741 110.681 67.6555 111.456 67.8807C112.038 68.0495 112.481 67.9683 112.707 67.1931C111.35 66.7992 110.187 66.4615 109.025 66.1238C109.081 65.93 109.081 65.93 109.137 65.7362C110.663 65.5488 112.157 66.1928 113.819 66.2555ZM85.8507 66.3279L85.9883 66.578C86.6822 66.3592 87.1823 66.0842 87.8762 65.8655C88.1263 65.728 88.5702 65.6468 88.8202 65.5093C89.0703 65.3717 89.6517 65.5406 89.7079 65.3468C90.3206 64.6842 90.8521 63.5778 91.6023 63.1652C93.9655 61.5401 94.5596 58.7708 95.8726 56.4204L95.9289 56.2266C96.2417 54.4262 96.4418 53.0134 96.6983 51.4069C96.7296 50.5754 96.7047 49.9378 96.486 49.2439C96.0485 47.856 94.8608 46.8807 93.723 47.1807C92.8353 47.3431 92.0288 47.9494 91.2786 48.3619C90.7785 48.6369 90.6097 49.2183 90.247 49.7434C90.0219 50.5185 89.9343 51.5438 89.7092 52.3189C89.3216 52.2064 89.1278 52.1501 88.7402 52.0375C88.3213 52.7564 88.6776 53.7004 87.5961 53.8065C87.5961 53.8065 87.4835 54.1941 87.4272 54.3879C87.4522 55.0255 87.4771 55.6632 87.5021 56.3008C87.4458 56.4946 87.3895 56.6884 87.4707 57.1323C87.2769 57.076 87.2769 57.076 87.0269 57.2135C86.8957 55.4944 86.5708 53.7189 86.4397 51.9998C86.2459 51.9435 86.2459 51.9435 86.0522 51.8872C85.9396 52.2748 85.8833 52.4686 85.7707 52.8562C85.8206 54.1314 85.9268 55.2129 85.7829 56.432C85.7266 56.6257 85.6141 57.0133 85.5578 57.2071C85.364 57.1508 85.364 57.1508 85.1702 57.0945C85.064 56.013 84.9016 55.1253 84.7954 54.0438C84.8517 53.85 84.6579 53.7938 84.5204 53.5437C84.4641 53.7375 84.2141 53.875 84.1578 54.0688C84.1015 54.2626 84.2953 54.3188 84.239 54.5126C84.3452 55.5941 84.2576 56.6194 84.3637 57.7009C84.1699 57.6446 84.1699 57.6446 83.9199 57.7821C83.7574 56.8944 83.595 56.0067 83.3762 55.3127C83.3762 55.3127 83.1825 55.2565 83.1262 55.4502C82.5634 57.3881 83.4134 59.5262 83.4882 61.4391C83.2944 61.3828 83.2944 61.3828 83.0443 61.5203C82.7444 60.3825 82.4444 59.2448 82.0069 57.8569L81.8132 57.8006C81.7006 58.1882 81.588 58.5758 81.6693 59.0196C81.9942 60.7951 82.1816 62.3204 82.5627 63.9021C82.7003 64.1521 82.644 64.3459 82.5314 64.7335C82.3376 64.6772 82.2813 64.871 82.0876 64.8147C81.7876 63.6769 81.3501 62.2891 81.0502 61.1513C81.0502 61.1513 80.8564 61.095 80.8001 61.2888C80.6875 61.6764 80.6313 61.8702 80.5187 62.2577C80.6249 63.3392 80.731 64.4207 81.031 65.5585C81.1685 65.8086 81.056 66.1962 80.9434 66.5837C80.8059 66.3337 80.4183 66.2211 80.2808 65.971L80.087 65.9148C80.0307 66.1086 80.0307 66.1086 79.9745 66.3023C79.7743 67.7151 79.5178 69.3217 79.3176 70.7345C79.2614 70.9283 79.2051 71.1221 79.3989 71.1784C80.2552 71.8473 79.6988 72.3161 79.3362 72.8412C78.4171 73.8351 77.6919 74.8853 76.7728 75.8792L76.9103 76.1292C77.4668 75.6604 78.1607 75.4417 78.7171 74.9729C79.6362 73.979 80.1676 72.8726 80.8929 71.8224C81.1992 71.4911 81.3118 71.1035 81.4244 70.716C81.5369 70.3284 81.5932 70.1346 81.8995 69.8033C82.2059 69.472 82.5122 69.1407 82.8186 68.8094C84.1566 67.0967 85.5508 65.1901 86.8887 63.4774C87.614 62.4272 88.3955 61.1833 88.7895 59.8267C89.4898 58.1389 90.4402 56.3136 91.1405 54.6258C91.647 52.8817 92.1536 51.1376 94.2916 50.2876C93.7039 51.5879 92.9786 52.638 92.4471 53.7445L92.6409 53.8008C92.891 53.6633 92.9473 53.4695 93.1973 53.332C93.5037 53.0007 93.6725 52.4193 93.9789 52.088C94.0352 51.8942 94.4227 52.0068 94.6728 51.8693C94.6165 52.0631 94.6978 52.5069 94.4477 52.6444C93.9725 53.5571 93.1097 54.3572 92.1907 55.3511C91.9406 55.4886 91.8281 55.8761 91.7155 56.2637C91.9093 56.32 91.853 56.5138 92.0468 56.5701C92.4094 56.045 92.9658 55.5762 93.466 55.3012C93.716 55.1637 93.9098 55.2199 94.3537 55.1387C94.2974 55.3325 94.1848 55.7201 93.9348 55.8576C93.1283 56.4639 92.3781 56.8764 91.6279 57.2889C91.1277 57.564 90.8214 57.8953 90.9838 58.783C91.734 58.3704 92.2342 58.0954 92.7906 57.6266C93.0407 57.4891 93.2345 57.5454 93.4845 57.4079C93.4282 57.6017 93.3157 57.9893 93.2594 58.183C93.0093 58.3206 92.7593 58.4581 92.5092 58.5956C92.4529 58.7894 92.3404 59.1769 92.3404 59.1769C92.8092 59.7333 92.2527 60.2021 92.0027 60.3397C91.2525 60.7522 90.6961 61.221 90.0021 61.4397C88.8643 61.7397 88.3892 62.6523 87.7202 63.5087L87.8577 63.7588C88.858 63.2087 89.7207 62.4086 90.721 61.8586L90.9148 61.9149C90.8022 62.3025 90.7459 62.4963 90.4396 62.8276C89.5205 63.8214 88.464 64.5653 87.1324 64.8089C86.576 65.2777 86.2697 65.609 85.8507 66.3279ZM94.1638 79.6691C95.3266 80.0068 95.3266 80.0068 95.8018 79.0942C95.9143 78.7066 96.1644 78.5691 96.4145 78.4316C96.6645 78.2941 96.8583 78.3503 97.1084 78.2128C97.2459 78.4629 97.1333 78.8505 97.077 79.0443C96.9645 79.4318 96.7144 79.5694 96.6018 79.9569C96.6018 79.9569 96.7956 80.0132 96.7394 80.207C97.7396 79.657 98.4086 78.8006 99.8777 78.807C99.265 79.4696 98.9024 79.9947 98.5397 80.5197C99.1211 80.6886 99.5649 80.6074 99.9525 80.7199C101.309 81.1139 102.778 81.1203 104.303 80.9329C104.497 80.9892 104.691 81.0454 104.885 81.1017C105.716 81.133 106.573 81.802 107.242 80.9456C107.298 80.7519 107.685 80.8644 107.879 80.9207C108.792 81.3959 109.204 82.1461 109.561 83.0901C108.898 82.4774 108.179 82.0585 107.517 81.4458L107.46 81.6396C108.148 82.8899 109.448 83.4777 109.886 84.8655C108.804 84.9717 108.029 84.7466 107.479 83.7463C107.26 83.0524 106.485 82.8272 105.822 82.2145C105.929 83.296 107.035 83.8275 106.447 85.1278C105.541 83.1835 104.022 81.9018 101.834 81.4765C102.497 82.0892 103.216 82.5081 103.878 83.1208C104.872 84.0399 105.091 84.7338 104.672 85.4527C103.516 83.6459 102.303 82.0329 100.059 81.8014C100.14 82.2453 100.471 82.5516 100.803 82.858C101.465 83.4707 102.128 84.0834 102.734 84.8898C102.871 85.1399 102.815 85.3337 102.703 85.7213C102.509 85.665 102.121 85.5524 102.178 85.3586C101.159 83.802 99.5835 82.7141 98.0083 81.6262C97.8145 81.5699 97.4269 81.4573 97.2331 81.4011L97.1768 81.5948C97.3143 81.8449 97.5081 81.9012 97.6456 82.1513C98.8333 83.1266 100.021 84.1019 100.458 85.4898C100.596 85.7398 100.483 86.1274 100.427 86.3212C100.233 86.2649 99.902 85.9586 99.7082 85.9023C99.1019 85.0958 98.5519 84.0955 97.7518 83.2328C96.7579 82.3137 95.5702 81.3384 93.9074 81.2757C94.57 81.8884 95.2888 82.3073 95.9514 82.92C96.614 83.5327 97.858 84.3143 97.2139 85.8083C97.1577 86.0021 97.2952 86.2521 97.4327 86.5022C98.289 87.1712 99.1454 87.8402 100.002 88.5091L100.058 88.3154C99.258 87.4526 98.6517 86.6461 97.7953 85.9771C97.8516 85.7833 97.8516 85.7833 98.1016 85.6458C98.6267 86.0085 99.2893 86.6212 99.8144 86.9838C100.146 87.2901 100.614 87.8466 101.171 87.3778C101.227 87.184 101.558 87.4903 101.946 87.6029C102.334 87.7154 102.471 87.9655 102.802 88.2719C102.64 87.3841 103.084 87.3029 103.609 87.6655C104.134 88.0282 104.659 88.3908 105.184 88.7534C105.378 88.8097 105.766 88.9223 105.959 88.9786L106.016 88.7848C105.353 88.1721 104.747 87.3656 104.084 86.7529L104.14 86.5591C105.247 87.0906 106.297 87.8158 107.403 88.3473C107.46 88.1535 107.46 88.1535 107.516 87.9597C106.853 87.347 106.328 86.9844 105.666 86.3717L105.722 86.1779C106.303 86.3468 106.635 86.6531 107.216 86.8219C107.797 86.9908 108.21 87.741 109.016 87.1347C110.379 86.0596 110.805 83.8716 110.036 82.1774C109.817 81.4835 109.211 80.677 108.686 80.3144C107.248 79.4766 105.754 78.8325 104.26 78.1885C102.047 77.1256 99.8028 76.8941 97.3898 77.2439C93.0075 77.8624 88.6815 78.2871 84.2743 78.2679C83.2491 78.1803 82.3051 78.5365 81.2236 78.6427C81.8548 80.0868 83.2113 80.4808 83.9551 81.5373C83.9551 81.5373 84.0114 81.3436 84.2052 81.3998C83.8739 81.0935 83.5989 80.5933 83.2676 80.287C83.2676 80.287 83.3239 80.0932 83.5177 80.1495C84.5116 81.0685 85.6992 82.0439 86.6368 83.1567L86.8869 83.0192C86.0868 82.1564 85.4805 81.3499 84.7367 80.2934C85.9244 81.2687 86.862 82.3815 88.0496 83.3569C89.2373 84.3322 90.2875 85.0575 91.4751 86.0328C90.6501 84.5324 88.9623 83.8321 88.3873 82.1942C88.5811 82.2504 88.9687 82.363 88.9124 82.5568C89.7374 84.0572 91.2315 84.7012 92.4191 85.6766C92.6129 85.7328 92.9442 86.0392 92.8879 86.233C93.2691 87.8146 94.4881 87.9585 95.5946 88.49C95.7884 88.5463 96.1759 88.6588 96.426 88.5213L96.4823 88.3275C96.3448 88.0775 95.9572 87.9649 95.8197 87.7148C95.6822 87.4648 95.3509 87.1584 95.2134 86.9083C96.2949 86.8022 96.7138 86.0833 96.1638 85.083C95.2824 83.7764 93.9822 83.1886 92.7945 82.2133C92.932 82.4634 93.2633 82.7697 93.4009 83.0198C94.0634 83.6325 94.5322 84.1889 95.1948 84.8016C95.3886 84.8579 95.2761 85.2455 95.2198 85.4393C95.026 85.383 94.8322 85.3267 94.6384 85.2704C93.4507 84.2951 92.5131 83.1823 91.3255 82.2069C90.9942 81.9006 90.8004 81.8443 90.4691 81.538C90.4691 81.538 90.4128 81.7317 90.219 81.6755C90.6878 82.2319 91.1566 82.7883 91.8755 83.2072C92.4006 83.5698 93.0632 84.1825 93.0318 85.014C92.6443 84.9014 92.5067 84.6513 92.3692 84.4013C90.8503 83.1196 89.6377 81.5066 87.7561 80.75C87.5623 80.6937 87.231 80.3874 87.0935 80.1373C87.481 80.2499 87.7311 80.1124 88.1187 80.2249C88.5063 80.3375 88.8376 80.6438 89.0876 80.5063C89.9753 80.3439 90.6693 80.1252 91.557 79.9627C91.7508 80.019 91.8883 80.2691 92.0258 80.5191C92.6385 79.8565 93.1949 79.3877 93.7513 78.9189C94.0014 78.7814 94.389 78.894 94.639 78.7565C94.5265 79.1441 94.4702 79.3378 94.3576 79.7254C94.664 79.3941 94.4139 79.5316 94.1638 79.6691ZM12.9765 85.7191C13.1703 85.7754 13.1703 85.7754 12.9765 85.7191C13.6954 86.138 14.1079 86.8882 14.5767 87.4446L14.8268 87.3071C14.333 86.1131 13.7018 84.6689 13.208 83.4749C13.0705 83.2248 12.683 83.1122 12.4329 83.2497C11.3514 83.3559 10.6261 84.4061 10.7323 85.4876C10.8135 85.9314 10.8385 86.5691 10.7259 86.9567C10.6134 87.3442 10.6946 87.7881 10.582 88.1757L10.3882 88.1194C10.032 87.1754 9.92583 86.0939 9.56959 85.1499L9.37579 85.0936C9.31951 85.2874 9.20696 85.675 9.34446 85.925C9.45064 87.0065 9.61308 87.8943 9.71926 88.9758C9.66297 89.1695 9.60669 89.3633 9.55041 89.5571C9.35663 89.5008 9.21912 89.2508 9.08161 89.0007C9.00039 88.5568 8.91916 88.113 8.83794 87.6691C8.75671 87.2253 8.67549 86.7814 8.53798 86.5314C8.34419 86.4751 8.28791 86.6689 8.09412 86.6126C7.91889 88.663 8.76888 90.8011 8.34358 92.989C7.90611 91.6012 7.52492 90.0195 7.08746 88.6317C6.89367 88.5754 6.83739 88.7692 6.6436 88.7129C6.27458 90.7071 7.62471 92.5701 7.50576 94.4268L7.25569 94.5643C6.89945 93.6203 6.54321 92.6763 6.13069 91.9261C6.13069 91.9261 5.9369 91.8698 5.88062 92.0636C6.26181 93.6452 6.64299 95.2268 7.02417 96.8085L6.77411 96.946C6.41787 96.002 5.92412 94.8079 5.56788 93.8639C5.45532 94.2515 5.39904 94.4453 5.34276 94.6391C6.05524 96.5271 6.51765 98.5526 7.23013 100.441C7.36764 100.691 7.31135 100.884 7.19879 101.272C6.67371 100.909 6.53621 100.659 6.20491 100.353L5.95484 100.49C6.7236 102.185 7.29857 103.823 8.06734 105.517L8.31741 105.379C8.01745 104.241 7.5237 103.047 7.22374 101.91C7.41753 101.966 7.4738 101.772 7.66759 101.828C8.71137 104.023 9.56136 106.161 10.6051 108.355C10.6051 108.355 10.6051 108.355 10.7989 108.411C10.0615 105.886 9.51785 103.416 8.78043 100.891C9.0305 100.753 9.33685 100.422 9.58691 100.284C11.1308 102.204 11.5619 105.061 13.0495 107.174C13.4998 105.624 12.3684 104.454 12.0684 103.317C11.631 101.929 10.9434 100.678 10.506 99.2906C10.0122 98.0966 9.57475 96.7087 9.08101 95.5146C9.27479 95.5709 9.33107 95.3771 9.52485 95.4334C11.1749 98.4342 12.2686 101.904 13.975 104.711C14.2065 102.467 12.8564 100.604 12.2002 98.5218C11.7377 96.4964 10.5814 94.6896 9.73142 92.5515C9.92521 92.6078 9.98149 92.414 10.1753 92.4703C10.669 93.6644 11.4128 94.7209 11.9066 95.915L12.1567 95.7775C12.1381 93.6708 11.8695 91.7016 11.8509 89.5948L12.101 89.4573C13.2573 91.2641 14.4699 92.8771 14.8761 95.0963L15.1261 94.9588C14.5262 92.6833 13.9263 90.4077 13.3264 88.1322C14.7078 89.1638 14.4514 90.7703 15.389 91.8832C15.0641 90.1078 14.0203 87.9134 12.9765 85.7191ZM62.7505 81.4728C64.5073 79.0412 66.0704 76.5533 67.9648 74.3717C70.4156 71.7214 71.9537 68.5958 72.9668 65.1077C73.5296 63.1698 74.0924 61.2319 74.6552 59.294C74.824 58.7127 74.6616 57.825 74.6366 57.1873C74.8055 56.606 74.8368 55.7745 74.6744 54.8868C74.6807 53.4177 74.0495 51.9736 73.4182 50.5295C73.3933 49.8918 72.9245 49.3354 72.0931 49.3041C72.0304 50.967 72.024 52.436 71.8801 53.655C72.1551 54.1552 72.6802 54.5178 72.6239 54.7116C72.3988 55.4867 72.0362 56.0118 71.811 56.787C71.6422 57.3683 71.2796 57.8934 71.1107 58.4748C71.3045 58.5311 71.3045 58.5311 71.4983 58.5873C71.9172 57.8685 72.5299 57.2059 72.9488 56.487C73.1426 56.5433 73.1426 56.5433 73.3364 56.5996C73.2801 56.7934 73.3613 57.2372 73.1113 57.3747C72.5798 58.4812 71.9108 59.3375 71.3793 60.444C70.9604 61.1629 70.7916 61.7442 70.5665 62.5194C70.7603 62.5757 70.7603 62.5757 70.954 62.6319C71.7605 62.0256 72.6233 61.2255 73.4298 60.6192L73.5673 60.8693C73.511 61.0631 73.3985 61.4507 73.1484 61.5882C71.9793 62.7195 70.7539 64.0447 69.391 65.1198C68.5845 65.7261 68.6094 66.3638 68.328 67.3327C68.8844 66.8639 69.3283 66.7827 69.8284 66.5077C70.0785 66.3702 70.4661 66.4827 70.6599 66.539C70.6036 66.7328 70.491 67.1204 70.4347 67.3142C69.8783 67.783 69.1844 68.0017 68.4342 68.4142C67.9341 68.6892 67.3776 69.158 67.7339 70.102C68.0402 69.7707 68.3466 69.4394 68.6529 69.1081C68.903 68.9706 69.1531 68.8331 69.4031 68.6956C69.2906 69.0832 69.4281 69.3333 69.3155 69.7208C68.9529 70.2459 68.5903 70.771 68.0901 71.046L68.2839 71.1023C68.3651 71.5462 68.5839 72.2401 68.3338 72.3776C67.9149 73.0965 67.2459 73.9528 66.4394 74.5591C65.883 75.028 65.3829 75.303 64.964 76.0218C64.8514 76.4094 64.6013 76.5469 64.295 76.8782L64.1012 76.8219C63.995 75.7404 64.4139 75.0216 64.8891 74.1089C65.308 73.39 65.2268 72.9462 64.5079 72.5273C64.2828 73.3024 64.0014 74.2714 63.5825 74.9902C63.4699 75.3778 63.0261 75.459 62.776 75.5965C62.8886 75.209 62.7511 74.9589 62.8636 74.5713C63.2263 74.0462 63.3951 73.4649 62.9263 72.9085C61.77 71.1017 60.6699 69.1011 59.5136 67.2944C59.3761 67.0443 59.3761 67.0443 59.1823 66.988C59.0697 67.3756 58.9572 67.7632 59.0384 68.207C59.2571 68.901 59.7259 69.4574 60.0009 69.9575C60.551 70.9578 61.3511 71.8206 61.9011 72.8208C62.0386 73.0709 61.926 73.4585 62.0635 73.7085C61.676 73.596 61.4822 73.5397 61.1509 73.2334C60.8196 72.927 60.7384 72.4832 60.4071 72.1768C60.1321 71.6767 59.857 71.1765 59.582 70.6764L59.332 70.8139C59.4132 71.2578 59.3006 71.6453 59.4381 71.8954C59.8506 72.6456 60.5132 73.2583 60.982 73.8147C61.2571 74.3149 61.7821 74.6775 62.1134 74.9838C61.6945 75.7027 61.6945 75.7027 62.4946 76.5655C62.8259 76.8718 63.1572 77.1782 62.6008 77.647C62.0693 78.7534 62.0879 80.8601 62.7505 81.4728ZM-13.9393 124.131L-14.1331 124.075C-14.1894 124.269 -14.3831 124.213 -14.4394 124.406C-15.1084 125.263 -15.6399 126.369 -16.4464 126.975C-17.5592 127.913 -18.672 128.851 -19.7286 129.594C-22.2043 131.607 -24.7363 133.814 -27.3496 135.576C-29.519 137.258 -31.6321 138.745 -33.939 140.177C-36.2459 141.608 -38.6903 142.789 -40.9972 144.221C-41.4973 144.496 -41.7474 144.633 -42.1912 144.714C-41.9162 145.215 -41.5849 145.521 -41.5037 145.965C-41.8913 145.852 -42.5289 145.877 -42.9165 145.765C-43.1103 145.708 -43.5541 145.79 -43.7479 145.733C-43.4729 146.233 -43.3354 146.484 -43.0604 146.984C-43.5042 147.065 -43.8918 146.952 -44.3357 147.034C-44.5295 146.977 -44.7795 147.115 -44.9733 147.058L-45.0296 147.252C-44.8921 147.502 -44.5045 147.615 -44.2295 148.115C-45.2547 148.027 -45.8924 148.052 -46.53 148.077L-46.5863 148.271C-46.1987 148.384 -46.0049 148.44 -45.6736 148.746C-44.761 149.221 -43.8733 149.059 -43.1231 148.646C-41.8164 147.765 -40.7036 146.828 -39.397 145.946C-37.7277 144.54 -36.0585 143.133 -34.3892 141.727C-31.3571 139.246 -27.8561 137.32 -24.6052 135.533C-22.3546 134.295 -19.7727 133.364 -17.3283 132.183C-12.9959 130.289 -8.93853 127.895 -4.38741 126.695C-4.13735 126.558 -3.88728 126.42 -3.74977 126.67C-2.75589 127.589 -1.50555 126.902 -0.28654 127.046C0.101035 127.158 0.351104 127.021 0.794959 126.94L0.851241 126.746C0.213598 126.771 -0.424043 126.796 -1.06169 126.821C-1.44926 126.708 -1.64305 126.652 -2.03062 126.539C-1.91806 126.152 -2.05557 125.902 -1.8055 125.764C-0.999015 125.158 0.00125828 124.608 0.807744 124.001C1.80802 123.451 3.00208 122.958 4.00235 122.408C4.00235 122.408 4.05863 122.214 3.86484 122.158C3.42098 122.239 2.83962 122.07 2.39577 122.151C0.257715 123.001 -1.63027 123.714 -3.57454 124.62C-5.76887 125.664 -7.71313 126.57 -9.76996 127.864C-11.2704 128.689 -12.852 129.07 -14.5712 129.201C-15.4589 129.364 -15.7339 128.863 -15.5088 128.088C-15.3962 127.701 -15.0898 127.369 -14.921 126.788C-14.7771 125.569 -14.3582 124.85 -13.9393 124.131ZM14.7303 115.857C14.7303 115.857 14.6741 116.051 14.8678 116.107C17.9186 115.732 20.888 114.914 23.995 114.345C24.0513 114.151 24.0513 114.151 23.9138 113.901C23.0888 112.401 23.6765 111.101 24.7894 110.163C25.9585 109.032 27.4589 108.207 28.7092 107.519C29.2656 107.05 29.7658 106.775 29.6033 105.888C29.4658 105.638 29.7722 105.306 29.8847 104.919C30.5288 103.425 31.3666 101.987 32.0669 100.299C32.5421 99.3865 32.6297 98.3612 33.1049 97.4486C33.2737 96.8672 33.5801 96.5359 34.3552 96.761C34.549 96.8173 34.7991 96.6798 35.0492 96.5423C36.0494 95.9923 36.8559 95.386 37.8562 94.8359C39.7755 93.292 41.8886 91.8044 43.3391 89.7041C43.758 88.9852 44.3707 88.3226 44.7897 87.6037C44.5959 87.5475 44.6522 87.3537 44.4584 87.2974C42.8767 87.6786 41.2951 88.0598 39.6572 88.6347C39.4071 88.7723 39.157 88.9098 39.1008 89.1035C38.0691 90.485 37.2313 91.9227 36.3372 93.5543C35.9183 94.2731 35.4745 94.3544 34.9494 93.9917C34.5618 93.8792 34.4243 93.6291 34.093 93.3228C34.1742 93.7666 34.2554 94.2105 34.2804 94.8481C33.8928 94.7356 33.6428 94.8731 33.0614 94.7042C33.0051 94.898 32.9488 95.0918 32.8925 95.2856C33.2488 96.2296 32.9424 96.5609 32.1673 96.3357C31.8859 97.3047 31.6045 98.2736 31.3794 99.0488C30.7353 100.543 29.9538 101.787 28.9785 102.974C28.2532 104.025 27.4717 105.269 26.5526 106.262C25.8836 107.119 24.8271 107.863 23.9643 108.663C22.5451 109.932 21.376 111.063 20.0131 112.138C18.2313 113.932 16.4808 114.895 14.7303 115.857ZM18.7153 85.4946C18.5215 85.4383 18.5215 85.4383 18.3278 85.382C18.0464 86.351 17.9587 87.3762 17.6773 88.3451C17.4835 88.2888 17.4835 88.2888 17.2898 88.2326C17.2085 87.7887 17.1836 87.1511 16.9086 86.6509C16.6585 86.7884 16.5459 87.176 16.3522 87.1197C15.6582 87.3384 15.4894 87.9198 16.0145 88.2824C16.8146 89.1452 16.5332 90.1141 16.6393 91.1956C16.7206 91.6395 16.5517 92.2209 16.4392 92.6084C16.1514 95.0465 15.9199 97.2907 15.8258 99.785C15.6193 102.667 14.5001 105.074 13.7121 107.787C13.6558 107.98 13.7371 108.424 13.6808 108.618C14.1246 108.537 14.5122 108.649 14.6248 108.262C15.2375 107.599 15.6564 106.88 16.0753 106.161C15.744 105.855 15.5502 105.799 15.2189 105.492C15.9691 105.08 16.5255 104.611 17.332 104.005C16.9445 103.892 16.7507 103.836 16.5569 103.78C16.9758 103.061 17.5885 102.398 18.0074 101.679C18.3137 101.348 18.2325 100.904 18.5389 100.573C18.9578 99.854 19.3204 99.3289 19.7393 98.6101C19.7393 98.6101 19.5455 98.5538 19.6018 98.36C19.1017 98.635 18.6015 98.91 18.0451 99.3788C18.5203 98.4662 19.1893 97.6098 19.6645 96.6972C20.0271 96.1721 20.196 95.5907 19.4771 95.1718C19.2833 95.1155 19.3959 94.7279 19.4521 94.5342C19.5647 94.1466 19.871 93.8153 20.0399 93.2339C20.1525 92.8463 20.0712 92.4025 20.1838 92.0149C19.6837 92.2899 19.3773 92.6212 18.9334 92.7024C19.0773 91.4834 19.5525 90.5708 19.6401 89.5456C19.7278 88.5203 20.5905 87.7202 19.7092 86.4136C19.2027 88.1577 19.4713 90.1269 18.0521 91.3958C18.3086 89.7892 18.7339 87.6013 18.7153 85.4946ZM-11.0754 115.717C-10.8253 115.58 -10.6315 115.636 -10.6315 115.636C-8.88103 114.673 -7.07427 113.517 -5.32379 112.555C-5.01744 112.223 -4.96116 112.029 -4.96116 112.029C-4.22951 109.51 -3.74794 107.129 -4.73543 104.74C-5.99794 101.852 -7.0481 101.127 -9.60506 102.696C-9.66134 102.89 -9.85513 102.833 -9.91141 103.027C-10.274 103.552 -10.8305 104.021 -10.7492 104.465C-10.3118 105.853 -9.68051 107.297 -9.04926 108.741C-8.24278 108.135 -7.43628 107.528 -6.87987 107.059C-6.82358 106.866 -6.43601 106.978 -6.24222 107.035C-6.2985 107.228 -6.35478 107.422 -6.41107 107.616C-7.02376 108.278 -7.83025 108.885 -8.44295 109.547C-8.69302 109.685 -8.80558 110.072 -9.11193 110.404C-9.11193 110.404 -8.91814 110.46 -8.97442 110.654C-8.47428 110.379 -8.16793 110.047 -7.6678 109.772C-7.41773 109.635 -7.22394 109.691 -7.03015 109.748C-7.08643 109.941 -7.199 110.329 -7.44907 110.466C-8.06177 111.129 -8.81196 111.542 -9.42466 112.204L-9.28716 112.454C-8.59324 112.235 -7.89931 112.017 -7.26166 111.992L-7.12416 112.242C-7.6243 112.517 -8.12443 112.792 -8.43078 113.123C-8.9872 113.592 -9.65618 114.448 -10.3501 114.667C-10.7377 114.554 -10.8502 114.942 -11.0754 115.717ZM57.677 119.925L57.6207 120.118C59.4211 120.431 61.0839 120.494 62.9156 119.975C62.9156 119.975 62.8593 120.169 63.0531 120.225C62.6093 120.306 62.3029 120.638 61.8591 120.719L61.8028 120.913C62.2466 120.832 62.6342 120.944 63.2719 120.919C63.4657 120.975 63.7969 121.282 63.9907 121.338C63.7407 121.476 63.4343 121.807 63.2405 121.751C62.9905 121.888 62.7967 121.832 62.4091 121.719C62.3528 121.913 62.3528 121.913 62.2965 122.107C62.6841 122.219 63.3218 122.194 63.7093 122.307C64.9283 122.451 64.9283 122.451 64.1468 123.695C64.7844 123.67 65.2283 123.589 65.6159 123.701C66.0034 123.814 66.391 123.926 66.5848 123.983C66.3347 124.12 66.0284 124.451 65.7783 124.589L65.722 124.783C66.3284 125.589 66.941 124.927 67.3849 124.845C67.3037 124.402 67.4162 124.014 67.335 123.57C65.9037 121.263 63.5846 119.119 60.7091 117.443C59.7965 116.968 58.6337 116.63 57.7774 115.961C57.2523 115.599 57.0585 115.542 56.5021 116.011C56.0019 116.286 55.5581 116.367 54.9204 116.392C53.3951 116.58 51.926 116.573 50.4569 116.567C50.0131 116.648 49.763 116.786 49.3192 116.867C50.6194 117.455 52.0322 117.655 53.3638 117.411C54.8891 117.224 56.4145 117.036 57.8835 117.043C58.0773 117.099 58.2148 117.349 58.4086 117.405C58.1586 117.543 58.1023 117.737 57.9085 117.68C57.4646 117.762 56.827 117.787 56.3831 117.868C55.4954 118.03 54.664 117.999 53.5825 118.105C55.8203 119.806 58.1522 119.012 60.5089 118.856C60.4527 119.05 60.4527 119.05 60.5902 119.3C59.6462 119.656 58.5647 119.762 57.677 119.925ZM55.0893 115.811C55.1456 115.617 55.1456 115.617 55.2018 115.423C55.0081 115.367 54.8143 115.311 54.6768 115.061C54.483 115.004 54.2892 114.948 54.0954 114.892C52.1889 113.498 49.8321 113.654 47.8379 113.285C46.6189 113.141 45.2061 112.941 43.9871 112.797C42.7681 112.653 41.3553 112.453 40.08 112.503C38.6109 112.496 37.2231 112.934 35.6415 113.315C35.4477 113.259 35.3914 113.452 35.1976 113.396C34.0598 113.696 32.7283 113.94 31.5342 114.433C30.8403 114.652 30.2026 114.677 29.7588 114.758C29.7025 114.952 29.7025 114.952 29.84 115.202C30.2839 115.121 31.2528 115.402 31.9467 115.184C33.0845 114.884 33.891 114.277 34.835 113.921C35.2788 113.84 35.5289 113.702 35.8039 114.203C36.0789 114.703 36.2727 114.759 36.7729 114.484C37.7168 114.128 38.6608 113.771 39.6048 113.415C39.8549 113.278 40.4363 113.447 40.5738 113.697C40.8488 114.197 40.4049 114.278 39.9611 114.359C39.2671 114.578 38.767 114.853 38.1294 114.878C38.0731 115.072 38.2669 115.128 38.2106 115.322C38.4044 115.378 38.8482 115.297 39.042 115.353C39.986 114.997 40.93 114.641 41.874 114.284C43.0681 113.791 43.0681 113.791 42.8679 115.203C44.2557 114.766 45.3935 114.466 46.5876 113.972L46.7251 114.222C46.1373 115.523 44.587 115.072 43.5305 115.816C45.4684 116.379 47.3001 115.86 48.8817 115.479C50.0195 115.179 49.9632 115.373 50.0694 116.454C51.7885 116.323 53.3701 115.942 55.0893 115.811ZM-14.1261 116.092C-14.1261 116.092 -13.9323 116.148 -14.1261 116.092C-14.0947 115.261 -14.451 114.317 -14.6134 113.429L-14.3634 113.291C-14.0883 113.792 -13.8133 114.292 -13.5383 114.792L-13.2882 114.654C-13.7257 113.266 -14.357 111.822 -14.9882 110.378L-14.7382 110.241C-14.1881 111.241 -13.5818 112.047 -13.0318 113.048C-13.2505 112.354 -13.413 111.466 -13.6317 110.772L-13.3816 110.635C-12.9691 111.385 -12.7504 112.079 -12.3379 112.829C-12.3379 112.829 -12.1441 112.885 -12.0878 112.691C-12.194 111.61 -12.4377 110.278 -12.5438 109.197C-12.1876 110.141 -11.8876 111.279 -11.3376 112.279L-11.0875 112.141C-11.6062 110.31 -12.1249 108.478 -12.5061 106.896C-11.2621 107.678 -11.5186 109.285 -10.7748 110.341C-10.5247 110.204 -10.5247 110.204 -10.5247 110.204C-10.0495 109.291 -10.5618 105.99 -11.2244 105.377C-11.4182 105.321 -11.8058 105.209 -11.8621 105.402C-12.531 106.259 -13.3938 107.059 -13.869 107.971C-15.0695 109.934 -16.0198 111.76 -16.3076 114.198C-16.708 117.023 -15.7205 119.411 -14.2891 121.718C-14.2891 121.718 -14.0954 121.775 -14.0391 121.581C-14.5891 120.58 -14.8891 119.443 -15.3828 118.249C-14.9952 118.361 -14.6077 118.474 -14.1638 118.393C-14.52 117.449 -14.6825 116.561 -15.0387 115.617L-14.7887 115.479C-14.5949 115.536 -14.4574 115.786 -14.1261 116.092ZM60.6149 56.2671C60.5586 56.4608 60.3085 56.5983 60.3085 56.5983C60.0271 57.5673 59.5519 58.4799 59.4643 59.5052C59.2641 60.918 58.6764 62.2182 60.1953 63.4999C61.5205 64.7253 62.2893 66.4195 63.3081 67.9761C63.5831 68.4763 63.9144 68.7826 64.1894 69.2828L64.4395 69.1453C64.302 68.8952 64.3583 68.7014 64.2208 68.4513C62.9832 66.2007 61.6081 63.7 60.3706 61.4494C60.2331 61.1994 60.1518 60.7555 60.0143 60.5054L60.2644 60.3679C61.752 62.481 63.2397 64.5941 64.4772 66.8448C63.6023 64.0691 62.0334 61.5121 60.2708 58.8989C60.7146 58.8176 61.1022 58.9302 61.2397 59.1803C61.846 59.9867 62.4523 60.7932 63.0024 61.7935C63.5524 62.7938 64.1587 63.6003 64.6525 64.7943C65.4903 63.3566 62.5214 57.6613 60.6149 56.2671ZM67.8976 57.9619C68.179 56.9929 68.5416 56.4678 67.9353 55.6614C67.1102 54.1609 66.0914 52.6043 65.0163 51.2414C64.8788 50.9913 64.8788 50.9913 64.7413 50.7412L64.7976 50.5474C64.9914 50.6037 65.3789 50.7163 65.5164 50.9663C66.3978 52.273 67.2791 53.5796 68.1604 54.8862C68.7667 55.6927 69.123 56.6367 69.673 57.637L69.9231 57.4995C70.1795 55.8929 69.2982 54.5862 68.8044 53.3922C68.1169 52.1418 67.2356 50.8352 66.548 49.5849L66.7981 49.4474C68.5109 50.7853 69.3609 52.9234 70.5172 54.7301C70.436 54.2863 70.5485 53.8987 70.2172 53.5924C69.6672 52.5921 69.311 51.6481 68.7609 50.6478C67.7172 48.4535 67.3296 48.3409 65.2728 49.6348C65.2728 49.6348 65.2728 49.6348 65.0227 49.7723C64.2162 50.3786 63.2159 50.9286 62.8783 52.0913C65.7288 53.1293 66.4099 55.8488 67.8976 57.9619ZM62.0559 88.2055C61.6683 88.0929 61.6683 88.0929 61.5308 87.8429C60.6182 87.3677 60.3432 86.8675 60.6246 85.8986C60.6809 85.7048 60.7934 85.3172 60.8497 85.1235C61.0185 84.5421 60.881 84.292 60.4372 84.3733C60.0496 84.2607 59.7995 84.3982 59.6057 84.3419C59.3806 85.1171 59.1555 85.8922 58.7929 86.4173C56.8985 88.5989 55.0604 90.5866 53.0285 92.5181C52.4158 93.1807 51.8594 93.6495 51.303 94.1183C51.303 94.1183 51.4968 94.1746 51.4405 94.3684C55.2727 92.7496 58.6362 90.5745 62.0559 88.2055ZM97.1212 75.2747C95.0208 73.8242 93.0829 73.2614 90.9449 74.1114C90.0009 74.4676 88.8068 74.9613 88.6067 76.3741C88.4378 76.9555 88.7691 77.2618 89.213 77.1806C89.6568 77.0994 90.2945 77.0744 90.7383 76.9932C92.2637 76.8058 93.789 76.6184 95.3707 76.2372C95.952 76.4061 96.5647 75.7435 97.1212 75.2747ZM60.6462 55.4356C63.1028 57.8301 64.6153 60.5809 66.3217 63.3879C66.6843 62.8628 66.7969 62.4753 66.7157 62.0314C65.7282 59.6433 64.5469 57.1989 63.3093 54.9483C63.0343 54.4481 62.3154 54.0292 62.0404 53.5291C61.6215 54.2479 61.2026 54.9668 60.6462 55.4356ZM49.4649 96.1061C48.3834 96.2122 41.4627 100.506 41.0438 101.225C44.3759 99.8814 47.708 98.5377 51.0401 97.194C51.0401 97.194 51.0964 97.0002 50.9026 96.9439C50.4588 97.0251 50.0149 97.1063 49.5711 97.1876C49.6836 96.8 49.6024 96.3561 49.4649 96.1061ZM63.4015 71.9958C63.8204 71.2769 63.933 70.8893 63.5204 70.1391C62.6954 68.6387 61.8141 67.3321 60.989 65.8317C60.5765 65.0815 59.9139 64.4688 59.5014 63.7186C59.3076 63.6623 59.2513 63.8561 59.0576 63.7998C59.1388 64.2437 58.8324 64.575 59.1637 64.8813C59.9888 66.3817 61.0076 67.9384 61.8326 69.4388C62.3264 70.6329 62.7952 71.1893 63.4015 71.9958ZM-11.532 118.737C-11.5883 118.93 -11.3945 118.987 -11.4508 119.18C-10.7568 118.962 -9.92542 118.993 -9.369 118.524C-8.25616 117.587 -7.47462 116.343 -6.49929 115.155C-6.19294 114.824 -6.0241 114.242 -5.71775 113.911L-5.91155 113.855C-7.46824 114.874 -9.27499 116.03 -10.8317 117.049C-10.2503 117.218 -9.63762 116.555 -9.2251 117.305C-10.2254 117.855 -10.9756 118.268 -11.532 118.737ZM67.0534 60.8687C67.2471 60.925 67.3034 60.7312 67.4972 60.7874C67.416 60.3436 67.5848 59.7622 67.5036 59.3184C66.4035 57.3178 65.3035 55.3173 64.0096 53.2605C63.6783 52.9541 63.3471 52.6478 62.7657 52.4789C62.5719 52.4226 62.3218 52.5601 62.2656 52.7539C62.2656 52.7539 62.3468 53.1978 62.5406 53.2541C63.0094 53.8105 63.7282 54.2294 64.0033 54.7295C64.6096 55.536 65.1596 56.5363 65.5158 57.4803C66.0096 58.6743 66.5033 59.8684 67.0534 60.8687ZM52.1779 96.894C52.1216 97.0878 52.3154 97.1441 52.2591 97.3379C52.6467 97.4504 53.0906 97.3692 53.6719 97.538C54.0595 97.6506 54.5034 97.5694 54.7534 97.4319C55.5849 97.4632 56.36 97.6883 57.1352 97.9134C57.9666 97.9448 58.9918 98.0324 59.8233 98.0637C60.6547 98.0951 61.4049 97.6825 62.0988 97.4638C62.5427 97.3826 63.0428 97.1076 63.7367 96.8888L63.5992 96.6388C62.9616 96.6637 62.2677 96.8824 61.4362 96.8511C59.467 97.1197 57.4978 97.3884 55.5036 97.0193C54.7285 96.7942 53.8971 96.7629 53.0656 96.7315C52.8718 96.6753 52.6218 96.8128 52.1779 96.894ZM83.0054 76.8487L83.1429 77.0988C84.4182 77.0489 85.6372 77.1928 86.9125 77.1429C87.1376 76.3677 87.6691 75.2613 88.0067 74.0986C86.2563 75.0611 84.6996 76.08 83.0054 76.8487ZM9.63558 114.588C9.04783 115.888 8.26629 117.132 7.42847 118.57C8.12239 118.351 8.81632 118.132 9.51024 117.913C9.70403 117.97 9.81659 117.582 9.87287 117.388C9.96048 116.363 9.79803 115.475 9.63558 114.588ZM12.8071 92.8144C12.8071 92.8144 12.6133 92.7581 12.557 92.9519C12.5506 94.421 12.1567 95.7775 13.2318 97.1404C13.7006 97.6968 13.863 98.5845 14.2755 99.3347C14.2755 99.3347 14.2755 99.3347 14.5256 99.1972C13.8694 97.1154 13.4633 94.8962 12.8071 92.8144ZM13.0066 97.9155C12.5315 98.8282 13.2375 102.185 14.3689 103.354C14.3504 101.248 13.5816 99.5535 13.0066 97.9155ZM68.9791 57.8557C68.4476 58.9621 68.635 60.4875 69.6852 61.2127C70.5479 60.4127 70.0292 58.5809 68.9791 57.8557ZM11.9553 110.218C12.4554 109.943 12.4554 109.943 12.3492 108.862C10.6927 107.33 10.4804 105.167 9.57414 103.223C9.8741 104.36 10.1741 105.498 10.5303 106.442C11.024 107.636 11.5178 108.83 11.9553 110.218ZM67.0843 130.222C67.4783 128.865 66.022 125.92 64.528 125.276C65.353 126.777 66.1218 128.471 67.0843 130.222ZM58.2307 81.8412C58.1744 82.035 58.1744 82.035 58.1181 82.2288C59.0308 82.704 59.8059 82.9291 60.7186 83.4043C60.9124 83.4606 61.1062 83.5169 61.1062 83.5169C61.3562 83.3794 61.6626 83.0481 61.9126 82.9106C61.7189 82.8543 61.5813 82.6042 61.1938 82.4917C61 82.4354 60.8062 82.3791 60.6124 82.3228C59.8935 81.9039 59.0621 81.8726 58.2307 81.8412ZM10.4478 119.026L10.3103 118.776C8.22857 119.432 6.2843 120.339 4.47754 121.495L4.61505 121.745C6.61559 120.645 8.55986 119.739 10.4478 119.026ZM68.5163 126.014C67.4035 126.952 67.4534 128.227 68.7785 129.453C68.7286 128.177 68.6225 127.096 68.5163 126.014ZM50.5056 130.87L50.7557 130.733C49.7368 129.176 48.718 127.619 47.6429 126.256L47.3928 126.394C48.6617 127.813 49.6806 129.37 50.5056 130.87ZM69.091 63.9821C69.2036 63.5945 69.3161 63.2069 69.4287 62.8193C68.9036 62.4567 68.3785 62.0941 67.7159 61.4814C67.7972 61.9252 67.6283 62.5066 67.7658 62.7567C68.2909 63.1193 68.6222 63.4256 69.091 63.9821ZM89.8646 61.1896C90.421 60.7208 91.1712 60.3083 91.7277 59.8395C90.3149 59.6393 89.8147 59.9144 89.8646 61.1896ZM87.9088 52.0062C88.0214 51.6186 87.9401 51.1747 88.1902 51.0372C88.4403 50.8997 88.6903 50.7622 88.9404 50.6247C88.9404 50.6247 89.1342 50.681 89.0779 50.8748C89.1905 50.4872 89.2468 50.2934 89.2218 49.6558C87.7214 50.4808 87.4151 50.8121 87.9088 52.0062ZM37.8446 84.7462C37.8446 84.7462 37.6508 84.6899 37.5946 84.8837C37.8133 85.5776 38.2258 86.3278 38.4446 87.0218C38.3883 87.2156 38.8321 87.1343 39.0259 87.1906C39.0822 86.9968 39.1385 86.803 39.1385 86.803C38.726 86.0528 38.3134 85.3026 37.8446 84.7462ZM11.9093 133.53C11.9093 133.53 11.9656 133.336 12.1594 133.392C11.4968 132.779 10.6967 131.917 10.0341 131.304C9.97781 131.498 9.78403 131.441 9.72775 131.635C10.3903 132.248 11.2467 132.917 11.9093 133.53ZM80.4171 79.249C81.0797 79.8617 81.7423 80.4744 82.4048 81.0871C81.9111 79.893 80.9172 78.974 80.4171 79.249ZM14.8082 85.2004C15.1459 84.0377 14.8709 83.5375 13.902 83.2561C14.3145 84.0063 14.5332 84.7003 14.8082 85.2004ZM108.574 67.6741C108.518 67.8679 108.518 67.8679 108.462 68.0617C109.237 68.2868 109.956 68.7057 110.731 68.9308C110.787 68.737 110.787 68.737 110.844 68.5432C110.068 68.3181 109.35 67.8992 108.574 67.6741ZM66.3652 66.1323C65.5024 66.9324 65.7212 67.6263 66.8276 68.1578C66.6089 67.4638 66.5277 67.02 66.3652 66.1323ZM70.5863 51.5982C70.6425 51.4044 70.8363 51.4607 70.8926 51.2669C70.4238 50.7105 70.0113 49.9603 69.5425 49.4039L69.2924 49.5414C69.7049 50.2916 70.1737 50.848 70.5863 51.5982ZM67.5337 71.5148C66.5897 71.8711 66.2834 72.2024 66.3895 73.2839C66.7522 72.7588 67.1148 72.2337 67.5337 71.5148ZM67.3719 64.1132C67.1781 64.0569 66.928 64.1944 66.928 64.1944C67.0092 64.6383 67.0342 65.2759 67.1154 65.7198C67.3092 65.776 67.3092 65.776 67.5593 65.6385C67.478 65.1947 67.4531 64.557 67.3719 64.1132ZM36.3813 89.7847C36.4626 90.2285 36.35 90.6161 36.4312 91.06C36.9876 90.5912 37.1002 90.2036 36.3813 89.7847Z" fill="url(#paint0_linear_0_1)"/>
</g>
<circle cx="28" cy="28" r="28" fill="url(#paint1_linear_0_1)"/>
<g clip-path="url(#clip2_0_1)">
<path d="M17.5136 24.1022C17.2046 24.1022 16.9541 23.8517 16.9541 23.5427V13.0629C16.9541 12.4948 17.7081 12.2892 17.9961 12.7796C18.6943 13.9692 19.7729 14.8408 21.1063 15.2203C21.4035 15.3048 21.5759 15.6142 21.4914 15.9115C21.4069 16.2087 21.0975 16.3817 20.8002 16.2966C19.7967 16.0112 18.8635 15.4835 18.0731 14.6951V23.5428C18.0731 23.8517 17.8226 24.1022 17.5136 24.1022Z" fill="#1A5B35"/>
<path d="M15.0238 20.5045C16.6939 20.5045 18.0473 21.8578 18.0473 23.5273C18.0473 25.1968 16.6939 26.5501 15.0245 26.5501C13.3543 26.5501 12.001 25.1968 12.001 23.5273C12.001 21.8578 13.3543 20.5045 15.0238 20.5045Z" fill="#1A5B35"/>
<path d="M44.4405 19.1148V22.9818L26.631 25.7213C26.5918 25.7213 26.6058 26.008 26.6058 21.9942C26.6058 21.1661 27.2101 20.4611 28.0291 20.3353L43.1515 18.0091C43.8293 17.9048 44.4405 18.4294 44.4405 19.1148Z" fill="#1A5B35"/>
<path d="M26.6058 38.7896C26.2968 38.7896 26.0463 38.5391 26.0463 38.2301V21.9942C26.0463 20.8816 26.8442 19.9512 27.9439 19.7821L43.0663 17.4559C44.0806 17.2997 45 18.085 45 19.1148V35.5024C45 35.8114 44.7495 36.062 44.4405 36.062C44.1315 36.062 43.881 35.8114 43.881 35.5024V19.1148C43.881 18.7676 43.5712 18.51 43.2365 18.5621L28.114 20.8883C27.5643 20.9728 27.1653 21.4379 27.1653 21.9942V38.2301C27.1653 38.5391 26.9148 38.7896 26.6058 38.7896Z" fill="#1A5B35"/>
<path d="M15.6571 22.1775C14.7279 22.4795 13.9749 23.2304 13.6728 24.1604C13.4047 24.9861 12.204 24.9233 12.0494 24.069C11.675 22.0007 13.4863 20.1748 15.5684 20.5533C16.4235 20.7089 16.4836 21.9088 15.6571 22.1775Z" fill="#076D32"/>
<path d="M40.7211 39.7576C43.0843 39.7576 45 37.8419 45 35.4787C45 33.1155 43.0843 31.1997 40.7211 31.1997C38.3579 31.1997 36.4421 33.1155 36.4421 35.4787C36.4421 37.8419 38.3579 39.7576 40.7211 39.7576Z" fill="#1A5B35"/>
<path d="M22.899 42.4965C25.2553 42.4965 27.1654 40.5863 27.1654 38.2301C27.1654 35.8739 25.2553 33.9638 22.899 33.9638C20.5428 33.9638 18.6327 35.8739 18.6327 38.2301C18.6327 40.5863 20.5428 42.4965 22.899 42.4965Z" fill="#1A5B35"/>
<path d="M26.0463 25.7214V21.9942C26.0463 20.8815 26.8444 19.9514 27.9439 19.7821L43.0663 17.4559C44.08 17.3009 45 18.0831 45 19.1148C45 19.9429 44.3958 20.6471 43.5774 20.773L31.3722 22.6504C30.3581 22.8063 29.5462 23.5081 29.2168 24.4289C29.0086 25.0107 28.5014 25.4335 27.8907 25.5273C26.9239 25.6759 27.4309 25.616 26.0463 25.7214Z" fill="#076D32"/>
<path d="M41.1393 33.6406C40.1375 34.0813 39.3179 34.8984 38.8772 35.9002C38.3152 37.1777 36.3975 36.7246 36.4448 35.3298C36.5198 33.1201 38.295 31.3212 40.4899 31.2058C42.0109 31.1258 42.4092 33.0818 41.1393 33.6406Z" fill="#076D32"/>
<path d="M23.3176 36.4059C22.3211 36.8448 21.5059 37.6567 21.067 38.6533C20.5048 39.9299 18.5881 39.4766 18.6351 38.0825C18.7095 35.8789 20.48 34.0847 22.6691 33.9698C24.1905 33.8899 24.5881 35.8462 23.3176 36.4059Z" fill="#076D32"/>
</g>
</g>
<defs>
<linearGradient id="paint0_linear_0_1" x1="72.7326" y1="-26.2141" x2="-46.3399" y2="383.78" gradientUnits="userSpaceOnUse">
<stop stop-color="#AE803F"/>
<stop offset="0.2019" stop-color="#C4A266"/>
<stop offset="0.4009" stop-color="#D7BE86"/>
<stop offset="0.5108" stop-color="#DEC992"/>
<stop offset="1" stop-color="#DEC992"/>
</linearGradient>
<linearGradient id="paint1_linear_0_1" x1="28" y1="0" x2="28" y2="56" gradientUnits="userSpaceOnUse">
<stop stop-color="#CDAF74"/>
<stop offset="1" stop-color="#DBC48D"/>
</linearGradient>
<clipPath id="clip0_0_1">
<rect width="1440" height="1024" fill="white" transform="translate(-14 -893)"/>
</clipPath>
<clipPath id="clip1_0_1">
<rect width="143.88" height="137.826" fill="white" transform="translate(122.485 49.4397) rotate(106.195)"/>
</clipPath>
<clipPath id="clip2_0_1">
<rect width="33" height="33" fill="white" transform="translate(12 11)"/>
</clipPath>
</defs>
</svg>
